<?xml version="1.0" encoding="UTF-8" standalone="no"?>
<!-- Created with Inkscape (http://www.inkscape.org/) -->

<svg
   xmlns:dc="http://purl.org/dc/elements/1.1/"
   xmlns:cc="http://creativecommons.org/ns#"
   xmlns:rdf="http://www.w3.org/1999/02/22-rdf-syntax-ns#"
   xmlns:svg="http://www.w3.org/2000/svg"
   xmlns="http://www.w3.org/2000/svg"
   version="1.1"
   width="34.5"
   height="65.5"
   id="svg3819">
  <defs
     id="defs3813" />
  <metadata
     id="metadata3816">
    <rdf:RDF>
      <cc:Work
         rdf:about="">
        <dc:format>image/svg+xml</dc:format>
        <dc:type
           rdf:resource="http://purl.org/dc/dcmitype/StillImage" />
        <dc:title></dc:title>
      </cc:Work>
    </rdf:RDF>
  </metadata>
  <g
     transform="matrix(3.543307,0,0,3.543307,-1832.0981,-1189.0555)"
     id="g7741">
    <g
       transform="matrix(0.26458333,0,0,0.26458333,517.58358,339.33229)"
       id="layer1-6-9-3-6-6">
      <path
         d="M 3.3826154,-12.189554 H 28.61966"
         id="path4111-3-2-6-8-8"
         style="fill:none;stroke:#000000;stroke-width:3.02362204;stroke-linecap:round;stroke-linejoin:round;stroke-miterlimit:4;stroke-opacity:1;stroke-dasharray:none" />
    </g>
    <path
       d="m 519.4325,337.01995 c 1.55395,-0.88263 3.48225,-0.87356 5.02726,0.0236 3.63927,2.3589 1.37411,16.56517 -2.63739,16.50476 -4.01149,-0.0604 -6.11264,-14.43824 -2.38987,-16.5284 z"
       id="path6304-8-0-8-0"
       style="fill:none;stroke:#000000;stroke-width:0.80000001;stroke-linecap:round;stroke-linejoin:round;stroke-miterlimit:4;stroke-opacity:1;stroke-dasharray:none;stroke-dashoffset:0" />
    <path
       d="m 526.0101,344.74307 c -0.61282,3.45085 -2.18198,6.59927 -4.18773,6.56907 -2.00575,-0.0302 -3.53391,-3.25173 -4.09528,-6.72698"
       id="path21247"
       style="fill:none;stroke:#000000;stroke-width:0.80000001;stroke-linecap:round;stroke-linejoin:round;stroke-miterlimit:4;stroke-opacity:1;stroke-dasharray:none;stroke-dashoffset:0" />
    <path
       d="m 526.0101,343.28292 c -0.61282,3.06281 -2.18198,5.8232 -4.18773,5.793 -2.00575,-0.0302 -3.53391,-2.8637 -4.09528,-5.95091"
       id="path21249"
       style="fill:none;stroke:#000000;stroke-width:0.80000001;stroke-linecap:round;stroke-linejoin:round;stroke-miterlimit:4;stroke-opacity:1;stroke-dasharray:none;stroke-dashoffset:0" />
    <path
       d="m 526.24758,341.60002 c -0.12909,2.63203 -2.41946,5.30533 -4.42521,5.27513 -2.00575,-0.0302 -4.1143,-2.62545 -4.28265,-5.43304"
       id="path21251"
       style="fill:none;stroke:#000000;stroke-width:0.80000001;stroke-linecap:round;stroke-linejoin:round;stroke-miterlimit:4;stroke-opacity:1;stroke-dasharray:none;stroke-dashoffset:0" />
  </g>
</svg>
