<?xml version="1.0" encoding="UTF-8" standalone="no"?>
<!-- Created with Inkscape (http://www.inkscape.org/) -->

<svg
   xmlns:dc="http://purl.org/dc/elements/1.1/"
   xmlns:cc="http://creativecommons.org/ns#"
   xmlns:rdf="http://www.w3.org/1999/02/22-rdf-syntax-ns#"
   xmlns:svg="http://www.w3.org/2000/svg"
   xmlns="http://www.w3.org/2000/svg"
   version="1.1"
   width="34.5"
   height="65.5"
   id="svg3819">
  <defs
     id="defs3813" />
  <metadata
     id="metadata3816">
    <rdf:RDF>
      <cc:Work
         rdf:about="">
        <dc:format>image/svg+xml</dc:format>
        <dc:type
           rdf:resource="http://purl.org/dc/dcmitype/StillImage" />
        <dc:title></dc:title>
      </cc:Work>
    </rdf:RDF>
  </metadata>
  <g
     transform="translate(-1717.2029,-1188.9275)"
     id="g21556">
    <path
       d="m 1722.4238,1190.9929 h 23.6597"
       id="path7724"
       style="fill:none;stroke:#000000;stroke-width:2.83464551;stroke-linecap:round;stroke-linejoin:round;stroke-miterlimit:4;stroke-opacity:1;stroke-dasharray:none" />
    <path
       d="m 1725.8039,1194.2272 c 5.5061,-3.1274 12.3386,-3.0953 17.8131,0.084 12.895,8.3583 4.8689,58.6954 -9.3451,58.4814 -14.2139,-0.214 -21.659,-51.1591 -8.468,-58.5652 z"
       id="path7726"
       style="fill:none;stroke:#000000;stroke-width:2.83464575;stroke-linecap:round;stroke-linejoin:round;stroke-miterlimit:4;stroke-opacity:1;stroke-dasharray:none;stroke-dashoffset:0" />
    <path
       d="m 1749.1103,1221.5926 c -2.1714,12.2274 -7.7314,23.3833 -14.8384,23.2763 -7.107,-0.1071 -12.5217,-11.5219 -14.5108,-23.8358"
       id="path7728"
       style="fill:none;stroke:#000000;stroke-width:2.83464575;stroke-linecap:round;stroke-linejoin:round;stroke-miterlimit:4;stroke-opacity:1;stroke-dasharray:none;stroke-dashoffset:0" />
    <path
       d="m 1749.1103,1216.4189 c -2.1714,10.8524 -7.7314,20.6333 -14.8384,20.5263 -7.107,-0.107 -12.5217,-10.1469 -14.5108,-21.0859"
       id="path7730"
       style="fill:none;stroke:#000000;stroke-width:2.83464575;stroke-linecap:round;stroke-linejoin:round;stroke-miterlimit:4;stroke-opacity:1;stroke-dasharray:none;stroke-dashoffset:0" />
    <path
       d="m 1749.9518,1210.4558 c -0.4574,9.3261 -8.5729,18.7984 -15.6799,18.6914 -7.107,-0.107 -14.5782,-9.3027 -15.1747,-19.2509"
       id="path7732"
       style="fill:none;stroke:#000000;stroke-width:2.83464575;stroke-linecap:round;stroke-linejoin:round;stroke-miterlimit:4;stroke-opacity:1;stroke-dasharray:none;stroke-dashoffset:0" />
    <path
       d="m 1748.5883,1203.3357 c 1.6635,10.3865 -7.2094,18.7984 -14.3164,18.6914 -7.107,-0.107 -15.4872,-9.1513 -13.8113,-19.251"
       id="path7749"
       style="fill:none;stroke:#000000;stroke-width:2.83464575;stroke-linecap:round;stroke-linejoin:round;stroke-miterlimit:4;stroke-opacity:1;stroke-dasharray:none;stroke-dashoffset:0" />
  </g>
</svg>
