<?xml version="1.0" encoding="UTF-8" standalone="no"?>
<svg
   xmlns:dc="http://purl.org/dc/elements/1.1/"
   xmlns:cc="http://creativecommons.org/ns#"
   xmlns:rdf="http://www.w3.org/1999/02/22-rdf-syntax-ns#"
   xmlns:svg="http://www.w3.org/2000/svg"
   xmlns="http://www.w3.org/2000/svg"
   xmlns:sodipodi="http://sodipodi.sourceforge.net/DTD/sodipodi-0.dtd"
   xmlns:inkscape="http://www.inkscape.org/namespaces/inkscape"
   id="svg3819"
   version="1.1"
   height="43.5"
   width="45"
   inkscape:version="0.48.5 r10040"
   sodipodi:docname="ch3slst.svg">
  <sodipodi:namedview
     pagecolor="#ffffff"
     bordercolor="#6666cb"
     borderopacity="1"
     objecttolerance="10"
     gridtolerance="10"
     guidetolerance="10"
     inkscape:pageopacity="0"
     inkscape:pageshadow="2"
     inkscape:window-width="738"
     inkscape:window-height="595"
     id="namedview2993"
     showgrid="false"
     inkscape:zoom="6.4701867"
     inkscape:cx="16.973154"
     inkscape:cy="23.810757"
     inkscape:window-x="0"
     inkscape:window-y="0"
     inkscape:window-maximized="0"
     inkscape:current-layer="svg3819"
     borderlayer="false"
     height="58px"
     fit-margin-top="0"
     fit-margin-left="0"
     fit-margin-right="0"
     fit-margin-bottom="0" />
  <defs
     id="defs3813" />
  <metadata
     id="metadata3816">
    <rdf:RDF>
      <cc:Work
         rdf:about="">
        <dc:format>image/svg+xml</dc:format>
        <dc:type
           rdf:resource="http://purl.org/dc/dcmitype/StillImage" />
        <dc:title></dc:title>
      </cc:Work>
    </rdf:RDF>
  </metadata>
  <g
     id="g11500"
     transform="matrix(3.543307,0,0,3.543307,-1350.3754,-100.39803)">
    <ellipse
       sodipodi:ry="1.42809"
       sodipodi:rx="3.5797815"
       sodipodi:cy="30.40686"
       sodipodi:cx="387.44418"
       ry="1.42809"
       rx="3.5797815"
       cy="30.40686"
       cx="387.44418"
       style="fill:none;stroke:#000000;stroke-width:0.80000001;stroke-linecap:round;stroke-linejoin:round;stroke-miterlimit:4;stroke-opacity:1;stroke-dasharray:none"
       id="ellipse11414-4"
       d="m 391.02396,30.40686 c 0,0.788713 -1.60272,1.42809 -3.57978,1.42809 -1.97706,0 -3.57978,-0.639377 -3.57978,-1.42809 0,-0.788712 1.60272,-1.42809 3.57978,-1.42809 1.97706,0 3.57978,0.639378 3.57978,1.42809 z" />
    <ellipse
       sodipodi:ry="1.42809"
       sodipodi:rx="3.5797815"
       sodipodi:cy="383.05408"
       sodipodi:cx="-35.054871"
       ry="1.42809"
       rx="3.5797815"
       cy="383.05408"
       cx="-35.054871"
       style="fill:none;stroke:#000000;stroke-width:0.80000001;stroke-linecap:round;stroke-linejoin:round;stroke-miterlimit:4;stroke-opacity:1;stroke-dasharray:none"
       id="ellipse11416-3"
       transform="matrix(0,-1,1,0,0,0)"
       d="m -31.475089,383.05408 c 0,0.78871 -1.602723,1.42809 -3.579782,1.42809 -1.977058,0 -3.579781,-0.63938 -3.579781,-1.42809 0,-0.78872 1.602723,-1.42809 3.579781,-1.42809 1.977059,0 3.579782,0.63937 3.579782,1.42809 z" />
    <ellipse
       sodipodi:ry="1.42809"
       sodipodi:rx="3.5797815"
       sodipodi:cy="391.8945"
       sodipodi:cx="-35.054871"
       transform="matrix(0,-1,1,0,0,0)"
       id="ellipse11418-6"
       style="fill:none;stroke:#000000;stroke-width:0.80000001;stroke-linecap:round;stroke-linejoin:round;stroke-miterlimit:4;stroke-opacity:1;stroke-dasharray:none"
       cx="-35.054871"
       cy="391.8945"
       rx="3.5797815"
       ry="1.42809"
       d="m -31.475089,391.8945 c 0,0.78871 -1.602723,1.42809 -3.579782,1.42809 -1.977058,0 -3.579781,-0.63938 -3.579781,-1.42809 0,-0.78871 1.602723,-1.42809 3.579781,-1.42809 1.977059,0 3.579782,0.63938 3.579782,1.42809 z" />
    <g
       id="layer1-73-8-9"
       inkscape:label="Layer 1"
       transform="matrix(0.26458333,0,0,0.26458333,384.39804,23.728615)">
      <circle
         sodipodi:ry="13.454545"
         sodipodi:rx="13.454545"
         sodipodi:cy="25.636364"
         sodipodi:cx="26.181818"
         r="13.454545"
         cy="25.636364"
         cx="26.181818"
         style="fill:#000000;fill-rule:evenodd;stroke:#000000;stroke-width:1px;stroke-linecap:butt;stroke-linejoin:miter;stroke-opacity:1"
         id="path2993-3-26-4"
         transform="matrix(0.44951137,0,0,0.44951137,-4.7690255,45.657981)"
         d="m 39.636363,25.636364 c 0,7.43074 -6.023805,13.454545 -13.454545,13.454545 -7.43074,0 -13.454545,-6.023805 -13.454545,-13.454545 0,-7.43074 6.023805,-13.454545 13.454545,-13.454545 7.43074,0 13.454545,6.023805 13.454545,13.454545 z" />
    </g>
  </g>
</svg>
