<?xml version="1.0" encoding="UTF-8" standalone="no"?>
<!-- Created with Inkscape (http://www.inkscape.org/) -->

<svg
   xmlns:dc="http://purl.org/dc/elements/1.1/"
   xmlns:cc="http://creativecommons.org/ns#"
   xmlns:rdf="http://www.w3.org/1999/02/22-rdf-syntax-ns#"
   xmlns:svg="http://www.w3.org/2000/svg"
   xmlns="http://www.w3.org/2000/svg"
   version="1.1"
   width="74.5"
   height="76.5"
   id="svg3819">
  <defs
     id="defs3813" />
  <metadata
     id="metadata3816">
    <rdf:RDF>
      <cc:Work
         rdf:about="">
        <dc:format>image/svg+xml</dc:format>
        <dc:type
           rdf:resource="http://purl.org/dc/dcmitype/StillImage" />
        <dc:title></dc:title>
      </cc:Work>
    </rdf:RDF>
  </metadata>
  <path
     d="m -72.597623,12.817342 c 1.815722,0.174548 3.112733,1.889554 2.916657,3.677873 -0.214422,1.95565 -2.069159,3.3476 -4.00168,3.118764 -2.07984,-0.24628 -3.556691,-2.224806 -3.300131,-4.284434 0.273066,-2.192137 2.363263,-3.74614 4.537327,-3.465423 2.295077,0.296342 3.920049,2.488674 3.617834,4.767323 -0.317039,2.390422 -2.603783,4.081298 -4.97909,3.759649 -2.479462,-0.335752 -4.232002,-2.710512 -3.892569,-5.175932 0.35289,-2.563161 2.810263,-4.373758 5.360282,-4.017891 2.642271,0.368742 4.50781,2.904096 4.136637,5.533991 -0.383522,2.717384 -2.992835,4.635144 -5.698505,4.249621 -2.788981,-0.397393 -4.756559,-3.077131 -4.357511,-5.854976 0.410484,-2.857454 3.157515,-4.872712 6.004343,-4.460855 0.937103,0.135572 1.831665,0.523022 2.572706,1.112253"
     transform="matrix(-5.895992,-3.5960803,-3.5960803,5.895992,-337.30209,-317.59767)"
     id="path11990"
     style="fill:none;stroke:#000000;stroke-width:0.41045406;stroke-linecap:butt;stroke-linejoin:miter;stroke-miterlimit:4;stroke-opacity:1;stroke-dasharray:none" />
</svg>
